<svg width="121" height="32" viewBox="0 0 121 32" fill="none" xmlns="http://www.w3.org/2000/svg">
<g clip-path="url(#clip0_1_2)">
<path d="M15 4C8.373 4 3 9.373 3 16C3 22.016 7.432 26.984 13.206 27.852V19.18H10.237V16.026H13.206V13.927C13.206 10.452 14.899 8.927 17.787 8.927C19.17 8.927 19.902 9.03 20.248 9.076V11.829H18.278C17.052 11.829 16.624 12.992 16.624 14.302V16.026H20.217L19.73 19.18H16.624V27.877C22.481 27.083 27 22.075 27 16C27 9.373 21.627 4 15 4Z" fill="#6B7280"/>
<path d="M44.7938 11.2604C43.936 11.2604 43.688 11.6409 43.688 12.48V13.872H45.976L45.7467 16.1209H43.6889V22.9458H40.9431V16.1209H39.0933V13.872H40.9431V12.5182C40.9431 10.2498 41.8578 9.05155 44.4098 9.05155C44.9446 9.0503 45.4789 9.08206 46.0098 9.14666V11.2631L44.7938 11.2604Z" fill="#6B7280"/>
<path d="M46.1662 18.1227C46.1662 15.5876 47.3671 13.6782 49.8836 13.6782C51.256 13.6782 52.0942 14.384 52.4951 15.2604V13.872H55.1253V22.9458H52.4951V21.5733C52.1138 22.4507 51.256 23.1369 49.8836 23.1369C47.3671 23.1369 46.1662 21.2302 46.1662 18.6924V18.1227ZM48.9111 18.7333C48.9111 20.0862 49.4062 20.9822 50.6836 20.9822C51.8089 20.9822 52.3805 20.1627 52.3805 18.8667V17.9556C52.3805 16.6596 51.8089 15.84 50.6836 15.84C49.4062 15.84 48.9111 16.736 48.9111 18.0889V18.7333Z" fill="#6B7280"/>
<path d="M60.8444 13.6809C61.9111 13.6809 62.9218 13.9102 63.4747 14.2907L62.8649 16.2356C62.293 15.9632 61.6681 15.82 61.0347 15.816C59.5476 15.816 58.9013 16.6738 58.9013 18.1422V18.6756C58.9013 20.144 59.5493 21.0018 61.0347 21.0018C61.6681 20.9978 62.293 20.8546 62.8649 20.5822L63.4747 22.5262C62.9218 22.9076 61.912 23.1369 60.8444 23.1369C57.6222 23.1369 56.1547 21.4018 56.1547 18.6187V18.1991C56.1547 15.416 57.6222 13.6809 60.8444 13.6809Z" fill="#6B7280"/>
<path d="M63.8364 18.7556V17.9556C63.8364 15.3822 65.304 13.6889 68.2978 13.6889C71.1191 13.6889 72.3582 15.4044 72.3582 17.9209V19.3698H66.5804C66.6382 20.6089 67.1911 21.1618 68.7138 21.1618C69.744 21.1618 70.8302 20.952 71.6311 20.6089L72.1333 22.4889C71.4089 22.8711 69.9218 23.1564 68.6071 23.1564C65.1324 23.1556 63.8364 21.4222 63.8364 18.7556ZM66.5813 17.5733H69.8987V17.3449C69.8987 16.3538 69.4987 15.5671 68.2987 15.5671C67.0587 15.568 66.5813 16.3502 66.5813 17.5698V17.5733Z" fill="#6B7280"/>
<path d="M82.5333 18.6951C82.5333 21.2302 81.3138 23.1396 78.8 23.1396C77.4276 23.1396 76.4747 22.4533 76.0933 21.576V22.9484H73.5013V9.31555L76.2462 9.06667V15.1289C76.6462 14.3289 77.5236 13.68 78.8009 13.68C81.3173 13.68 82.5342 15.5867 82.5342 18.1244L82.5333 18.6951ZM79.7885 18.0658C79.7885 16.7884 79.2933 15.8356 77.9778 15.8356C76.8525 15.8356 76.2427 16.6356 76.2427 17.9324V18.8853C76.2427 20.1813 76.8525 20.9822 77.9778 20.9822C79.2933 20.9822 79.7885 20.0293 79.7885 18.752V18.0658Z" fill="#6B7280"/>
<path d="M83.4516 18.6373V18.1804C83.4516 15.568 84.9387 13.6809 87.9698 13.6809C91.0009 13.6809 92.4889 15.568 92.4889 18.1804V18.6373C92.4889 21.2489 91.0018 23.1369 87.9707 23.1369C84.9396 23.1369 83.4516 21.2489 83.4516 18.6373ZM89.7431 17.9893C89.7431 16.7884 89.2471 15.8356 87.9653 15.8356C86.6836 15.8356 86.192 16.7884 86.192 17.9893V18.8284C86.192 20.0293 86.688 20.9822 87.9653 20.9822C89.2427 20.9822 89.7431 20.0293 89.7431 18.8284V17.9893Z" fill="#6B7280"/>
<path d="M93.4018 18.6373V18.1804C93.4018 15.568 94.8889 13.6809 97.92 13.6809C100.951 13.6809 102.438 15.568 102.438 18.1804V18.6373C102.438 21.2489 100.951 23.1369 97.92 23.1369C94.8889 23.1369 93.4018 21.2489 93.4018 18.6373ZM99.6933 17.9893C99.6933 16.7884 99.1973 15.8356 97.92 15.8356C96.6427 15.8356 96.1476 16.7884 96.1476 17.9893V18.8284C96.1476 20.0293 96.6427 20.9822 97.92 20.9822C99.1973 20.9822 99.6933 20.0293 99.6933 18.8284V17.9893Z" fill="#6B7280"/>
<path d="M106.212 18.1991L108.919 13.872H111.836L108.996 18.352L111.95 22.9458H109.034L106.212 18.5013V22.9458H103.467V9.31555L106.212 9.06667V18.1991Z" fill="#6B7280"/>
</g>
<defs>
<clipPath id="clip0_1_2">
<rect width="120.89" height="32" fill="white"/>
</clipPath>
</defs>
</svg>
